# xmcd CD database file
#
# Track frame offsets:
#	150
#	12440
#	26760
#	38345
#	52107
#	62517
#	73667
#	89662
#	98870
#	114182
#	126877
#	141220
#	151940
#	167962
#	180420
#
# Disc length: 2603 seconds
#
# Revision: 0
# Processed by: cddbd v1.5.1PL0 Copyright (c) Steve Scherf et al.
# Submitted via: CDex 1.51
#
DISCID=c60a290f
DTITLE=All About Country - cd 2
DYEAR=1999
DGENRE=Country
TTITLE0=Freddy Fender - Wasted days and wasted nights
TTITLE1=George Jones - Good year for  the roses
TTITLE2=Don Gibson - Oh lonesome me
TTITLE3=Kingston Trio - Tom Dooley
TTITLE4=Wanda Jackson - It's only make believe
TTITLE5=Faron Young - Crying Time
TTITLE6=Toni Wille - Desperado
TTITLE7=Frankie Laine - Rawhide
TTITLE8=Kenny Rogers - For the good times
TTITLE9=Willie Nelson - Any old arms won't do
TTITLE10=David Speegle - You Sure have a way without words
TTITLE11=Kris Kristoffferson - Jesus was a capricorn
TTITLE12=Billie Jo Spears - Blanket on the ground
TTITLE13=Dolly Parton - Making believe
TTITLE14=Anne Murray - There goes my everything
EXTD=YEAR: 1999
EXTT0=
EXTT1=
EXTT2=
EXTT3=
EXTT4=
EXTT5=
EXTT6=
EXTT7=
EXTT8=
EXTT9=
EXTT10=
EXTT11=
EXTT12=
EXTT13=
EXTT14=
PLAYORDER=
